<svg id="Capa_1" enable-background="new 0 0 512 512" height="512" viewBox="0 0 512 512" width="512" xmlns="http://www.w3.org/2000/svg"><g><circle cx="502" cy="156" r="10"/><path d="m477 66c-6.042 0-11.732 1.54-16.697 4.247-4.549-14.053-17.755-24.247-33.303-24.247-19.299 0-35 15.701-35 35v45h-26v-10c0-16.542-13.458-30-30-30-3.852 0-7.533.738-10.92 2.066-3.255-12.672-14.776-22.066-28.45-22.066h-.63c-3.853 0-7.534.738-10.921 2.067-3.258-12.674-14.778-22.067-28.449-22.067h-.63c-13.815 0-25.473 9.39-28.943 22.121-3.424-1.363-7.153-2.121-11.057-2.121-16.542 0-30 13.458-30 30v30h-66v-45c0-19.299-15.701-35-35-35-15.548 0-28.754 10.194-33.303 24.247-4.965-2.707-10.655-4.247-16.697-4.247-19.299 0-35 15.701-35 35v110c0 19.299 15.701 35 35 35 6.042 0 11.732-1.54 16.697-4.247 4.549 14.053 17.755 24.247 33.303 24.247 19.299 0 35-15.701 35-35v-45h26.139c1.827 46.843 23.824 89.261 59.861 115.239v24.761h-10c-5.522 0-10 4.478-10 10v80c0 5.522 4.478 10 10 10h10v30c0 5.522 4.478 10 10 10h100c5.522 0 10-4.478 10-10v-30h10c5.522 0 10-4.478 10-10v-80c0-5.522-4.478-10-10-10h-10v-24.084c24.826-14.835 40-41.358 40-70.636v-45.28h26v45c0 19.299 15.701 35 35 35 15.548 0 28.754-10.194 33.303-24.247 4.965 2.707 10.655 4.247 16.697 4.247 19.299 0 35-15.701 35-35v-10c0-5.522-4.478-10-10-10s-10 4.478-10 10v10c0 8.271-6.729 15-15 15s-15-6.729-15-15v-110c0-8.271 6.729-15 15-15s15 6.729 15 15v10c0 5.522 4.478 10 10 10s10-4.478 10-10v-10c0-19.299-15.701-35-35-35zm-427 145c0 8.271-6.729 15-15 15s-15-6.729-15-15v-110c0-8.271 6.729-15 15-15s15 6.729 15 15zm50 20c0 8.271-6.729 15-15 15s-15-6.729-15-15v-150c0-8.271 6.729-15 15-15s15 6.729 15 15zm20-65v-20h66v20c-6.694 0-57.926 0-66 0zm186 280h-80v-20h80zm20-80h-30c-5.522 0-10 4.478-10 10s4.478 10 10 10h30v20h-120v-20h30c5.522 0 10-4.478 10-10s-4.478-10-10-10h-30v-20h120zm20-134.72c0 23.768-13.21 45.14-34.474 55.776-3.386 1.695-5.526 5.157-5.526 8.944v30h-80v-30c0-3.333-1.661-6.447-4.429-8.305l-.695-.466c-32.713-21.975-52.876-59.479-54.735-101.229h19.859v10c0 5.522 4.478 10 10 10s10-4.478 10-10c0-9.899 0-88.645 0-100 0-5.514 4.486-10 10-10s10 4.486 10 10v40c0 5.522 4.478 10 10 10s10-4.478 10-10v-60c0-5.514 4.486-10 10-10h.63c5.167 0 9.37 4.208 9.37 9.38v60.62c0 5.522 4.478 10 10 10s10-4.478 10-10v-40c0-5.514 4.486-10 10-10h.63c5.167 0 9.37 4.203 9.37 9.37v40.63c0 5.522 4.478 10 10 10s10-4.478 10-10v-20c0-5.514 4.486-10 10-10s10 4.486 10 10zm46-65.28h-26v-20h26zm50 65c0 8.271-6.729 15-15 15s-15-6.729-15-15v-150c0-8.271 6.729-15 15-15s15 6.729 15 15z"/></g></svg>