<?xml version="1.0" ?><!DOCTYPE svg  PUBLIC '-//W3C//DTD SVG 1.1//EN'  'http://www.w3.org/Graphics/SVG/1.1/DTD/svg11.dtd'><svg enable-background="new 0 0 48 48" height="48px" version="1.1" viewBox="0 0 48 48" width="48px" xml:space="preserve" xmlns="http://www.w3.org/2000/svg" xmlns:xlink="http://www.w3.org/1999/xlink"><g id="Layer_4"><path d="M47.112,25.285h-0.188h-21.65l1.603-0.97c0.031-0.022,2.003-1.313,2.904-2.589   c0.112-0.182,0.192-0.38,0.287-0.571c0.747-1.243,1.181-2.696,1.181-4.252c0-4.57-3.707-8.276-8.276-8.276   c-1.16,0-2.255,0.258-3.256,0.692c-0.543,0.266-1.593,0.828-1.593,0.828l-4.519,2.749h0l-8.073,4.482h0.008   c-1.93,1.031-3.466,2.693-4.306,4.734L1.23,22.099c0,0-1.719,3.331-1.002,7.418c0.005,0.032,0.013,0.062,0.018,0.096   c0.035,0.189,0.069,0.379,0.115,0.571c0.002-0.003,0.003-0.006,0.005-0.01c0.153,0.643,0.368,1.28,0.665,1.901   c0,0,0.114,0.229,0.312,0.577c0.067,0.117,0.135,0.235,0.207,0.351c0.455,0.747,1.226,1.798,2.211,2.715   c0.519,0.454,1.653,1.395,2.689,1.922c1.686,0.822,4.36,1.667,8.243,1.724v0.01h0.104h0.289h7.945h12.545h0.194l11.152-12.804   l0.003-0.005l0.185-0.211v-0.021l0.834-1.047H47.112z M18.247,13.115c0.873-0.555,2.698-1.5,2.943-1.626   c0.561-0.197,1.155-0.317,1.784-0.317c3.165,0,5.73,2.566,5.73,5.731c0,1.143-0.34,2.2-0.92,3.09l-0.019-0.005   c-0.025,0.051-0.054,0.099-0.08,0.149c-0.351,0.504-0.777,0.951-1.268,1.32l0.016,0.014l-6.966,4.513   c0.002-0.088,0.015-0.172,0.015-0.259c0-4.297-2.862-7.909-6.78-9.078L18.247,13.115z M35.374,36.861H14.799v0.013   c-1.295-0.007-4.18-0.16-6.874-1.251c-0.206-0.096-0.41-0.192-0.599-0.299c-0.01-0.005-0.019-0.011-0.028-0.016   c-0.257-0.147-0.499-0.305-0.722-0.475c0,0.002,0,0.003-0.002,0.007c-0.058-0.045-0.124-0.086-0.179-0.132   c-0.014-0.012-0.016-0.018-0.028-0.028c-0.098-0.07-0.197-0.139-0.292-0.214c-0.226-0.177-0.43-0.352-0.625-0.529   c-0.009-0.008-0.017-0.015-0.024-0.022c-1.59-1.463-2.187-2.897-2.187-2.897c-0.33-0.688-0.534-1.405-0.626-2.124   c-0.001-0.001-0.001-0.001-0.001-0.001c-0.001-0.005-0.001-0.009-0.002-0.014c-0.032-0.257-0.052-0.514-0.056-0.77   c-0.207-3.333,1.129-5.501,1.129-5.501l0.005,0.005c1.148-2.326,3.533-3.933,6.304-3.933c3.597,0,6.559,2.698,6.985,6.179   c0.015,0.254,0.042,1.092-0.186,1.625c-0.278,0.729-0.818,1.812-1.728,2.451c-0.071,0.057-0.148,0.114-0.243,0.176   c-0.032,0.021-0.065,0.03-0.098,0.051c-0.01,0.005-0.017,0.014-0.028,0.019c-0.011,0.007-0.023,0.009-0.036,0.014   c-1.744,1.02-3.513,0.384-3.513,0.384l0.001-0.007c-0.381-0.085-0.74-0.23-1.056-0.44c-0.038-0.026-0.073-0.054-0.11-0.081   c-0.799-0.577-1.324-1.512-1.324-2.571c0-1.193,0.663-2.219,1.634-2.761l-0.005-0.009c0,0,0.824-0.609,1.832-0.236   c0.012,0.004,0.017,0.009,0.029,0.014c0.015,0.006,0.028,0.012,0.042,0.02c0.218,0.091,0.343,0.181,0.396,0.266   c0.335,0.295,0.559,0.713,0.559,1.193c0,0.498-0.242,0.922-0.602,1.212c-0.3,0.212-0.509,0.544-0.509,0.939   c0,0.646,0.524,1.171,1.17,1.171c0.356,0,0.66-0.172,0.872-0.427l0.004,0.002c0,0,0.411-0.48,0.582-0.706   c0.012-0.019,0.027-0.035,0.04-0.054c0.007-0.01,0.023-0.029,0.028-0.037c0.003-0.004-0.001-0.007,0-0.012   c0.407-0.598,0.656-1.309,0.656-2.089c0-2.121-1.72-3.843-3.842-3.843c-0.134,0-0.258,0.033-0.388,0.048v-0.004   c-0.012,0.002-0.024,0.007-0.037,0.008c-0.263,0.031-0.515,0.086-0.757,0.168c-2.248,0.643-3.901,2.681-3.901,5.134   c0,2.108,1.224,3.912,2.989,4.795l-0.01,0.019c0,0,0.078,0.033,0.196,0.083c0.08,0.035,0.16,0.067,0.241,0.101   c0.357,0.147,0.836,0.336,1.039,0.382c0,0,2.958,0.879,6.364-1.356l0.002,0.007l0.253-0.169c0.002-0.004,0.006-0.006,0.008-0.007   l1.648-1.112l2.772-1.797h21.506L35.374,36.861z" fill="#241F20"/></g></svg>